<?xml version="1.0" encoding="UTF-8"?>
<svg version="1.1" xmlns="http://www.w3.org/2000/svg" width="1024" height="1024">
<path d="M0 0 C0.87011719 0.19335938 1.74023438 0.38671875 2.63671875 0.5859375 C20.70346727 5.06625839 36.29625577 18.95313505 46.1875 34.1875 C54.76162946 48.62370618 57.19498138 63.41573918 57.6875 79.9375 C57.75807617 81.71543945 57.75807617 81.71543945 57.83007812 83.52929688 C58.08336584 91.09886264 57.81191986 98.47011197 57 106 C58.00160156 105.96519531 59.00320313 105.93039062 60.03515625 105.89453125 C68.94802851 105.67397657 74.71326646 105.97407044 82.1875 111.25 C89.034674 117.94501458 89.99402725 124.69168381 90.13371277 134.0328064 C90.14261676 135.94031107 90.14615052 137.84784585 90.14526367 139.75537109 C90.14862228 140.80361557 90.1519809 141.85186005 90.15544128 142.93186951 C90.16489954 146.37907106 90.16689172 149.82622379 90.16796875 153.2734375 C90.17118456 155.68185445 90.17454888 158.0902712 90.17805481 160.49868774 C90.18403302 165.54047091 90.18589602 170.58223697 90.18530273 175.62402344 C90.18520111 182.06862033 90.19885943 188.51310705 90.21607494 194.95767784 C90.22721919 199.93008931 90.22922121 204.90247433 90.22869301 209.874897 C90.22986923 212.25022385 90.23427081 214.62555146 90.24202538 217.00086594 C90.2518755 220.32926812 90.2489275 223.65743346 90.24291992 226.98583984 C90.24853943 227.95654922 90.25415894 228.92725861 90.25994873 229.92738342 C90.21321256 240.17079576 89.152516 248.35176507 82 256 C72.15554143 265.12413233 58.10541941 263.16459446 45.52905273 263.23706055 C43.88030205 263.24993685 42.2315543 263.26319197 40.58280945 263.27679443 C36.12788137 263.31219797 31.67293386 263.34154729 27.21795154 263.36918616 C24.42604043 263.38676631 21.63414097 263.40563171 18.84224129 263.42493629 C9.07738984 263.49237327 -0.68747956 263.55473395 -10.45239258 263.61254883 C-19.51367452 263.66633704 -28.57482699 263.7314665 -37.63599354 263.80188721 C-45.44781941 263.86206997 -53.25967312 263.9140327 -61.07159656 263.95981437 C-65.72276273 263.98721755 -70.37385018 264.0178245 -75.02493477 264.05682945 C-79.4072225 264.09331062 -83.78945921 264.11943529 -88.17185783 264.1381073 C-89.7660187 264.14657141 -91.3601662 264.15851107 -92.95426941 264.17449379 C-101.12980037 264.25429392 -109.15987687 264.03026216 -117.28916931 263.09992981 C-117.99332271 263.01995906 -118.69747611 262.9399883 -119.42296749 262.85759419 C-126.17889067 262.00015242 -131.16854287 260.29698724 -135.8125 255.125 C-143.51364959 244.12335773 -143.30587572 231.57325906 -143.1484375 218.5234375 C-143.13900864 217.13642916 -143.13043702 215.74941477 -143.12265015 214.36239624 C-143.0991578 210.66848687 -143.06248101 206.97482012 -143.022995 203.28105164 C-142.9922516 200.23137625 -142.96996388 197.18166303 -142.94766617 194.13191605 C-142.89026654 186.3311687 -142.81112605 178.53088172 -142.71243668 170.73054886 C-142.66194861 166.73983428 -142.61536772 162.74916315 -142.578125 158.75830078 C-142.5410877 154.79201915 -142.49479987 150.82594552 -142.44193649 146.85984421 C-142.42364244 145.37770507 -142.40844629 143.89552378 -142.39665604 142.41331863 C-142.21253263 120.19345883 -142.21253263 120.19345883 -136 113 C-129.38265811 107.21322983 -125.03052129 105.8296108 -116.25 105.9375 C-115.55261719 105.94201172 -114.85523438 105.94652344 -114.13671875 105.95117188 C-112.42444197 105.9628998 -110.71220967 105.98083347 -109 106 C-109.01571045 104.90236328 -109.0314209 103.80472656 -109.04760742 102.67382812 C-109.10275024 98.52139912 -109.13664998 94.36900091 -109.16479492 90.21630859 C-109.17969266 88.43402631 -109.20001783 86.6517794 -109.22631836 84.86962891 C-109.54474439 62.70467958 -106.46122267 43.70160774 -92 26 C-91.34515625 25.15824219 -90.6903125 24.31648438 -90.015625 23.44921875 C-68.50610316 -2.54819205 -31.26911408 -8.41709486 0 0 Z M-65 38 C-65 38.66 -65 39.32 -65 40 C-65.66 40 -66.32 40 -67 40 C-82.7388728 60.04186512 -79 80.21814285 -79 106 C-43.69 106 -8.38 106 28 106 C29.3014105 70.92889407 29.3014105 70.92889407 15 40 C14.34 40 13.68 40 13 40 C12.773125 39.4121875 12.54625 38.824375 12.3125 38.21875 C8.22592476 31.31049186 -2.54680658 27.2236664 -10 25 C-29.64541132 20.5409248 -49.89043558 24.04921421 -65 38 Z M-48 149 C-51.57555813 154.07498574 -51.95850666 159.9108519 -52 166 C-51.67 166.33 -51.34 166.66 -51 167 C-50.896875 168.051875 -50.79375 169.10375 -50.6875 170.1875 C-49.52848503 176.61476484 -45.78462951 180.7190157 -41 185 C-40.34 185 -39.68 185 -39 185 C-39.10022461 185.54457352 -39.20044922 186.08914703 -39.30371094 186.65022278 C-40.34498114 192.31091204 -41.38255416 197.97227001 -42.41796875 203.6340332 C-42.80503799 205.74781445 -43.19305422 207.86142251 -43.58203125 209.97485352 C-44.14050508 213.01013027 -44.69558652 216.04601058 -45.25 219.08203125 C-45.42499023 220.02899368 -45.59998047 220.97595612 -45.78027344 221.95161438 C-46.02052246 223.27264412 -46.02052246 223.27264412 -46.265625 224.62036133 C-46.40774414 225.39535477 -46.54986328 226.17034821 -46.69628906 226.96882629 C-47.07394042 229.1522102 -47.07394042 229.1522102 -47 232 C-33.47 232 -19.94 232 -6 232 C-6.7247441 221.75731758 -6.7247441 221.75731758 -8.15625 211.74609375 C-8.37410156 210.54275391 -8.59195313 209.33941406 -8.81640625 208.09960938 C-9.04199219 206.89111328 -9.26757812 205.68261719 -9.5 204.4375 C-9.72558594 203.19419922 -9.95117188 201.95089844 -10.18359375 200.66992188 C-11.22763684 194.65088328 -11.22763684 194.65088328 -12.64257812 188.71508789 C-12.81950195 187.86611938 -12.81950195 187.86611938 -13 187 C-11.46517645 184.9535686 -9.64232806 183.74320989 -7.5625 182.25 C-3.26349202 178.47526128 -0.53789014 173.78231902 0 168 C0.07476563 167.28070313 0.14953125 166.56140625 0.2265625 165.8203125 C0.63953427 158.84326318 -1.01374967 153.73443722 -5 148 C-10.02975466 142.41253127 -14.77247637 139.37373056 -22.40234375 138.69921875 C-33.78673098 138.66148045 -40.01422846 140.65369702 -48 149 Z " fill="#010101" transform="translate(538,324)"/>
<path d="M0 0 C0.67417969 0.52722656 1.34835937 1.05445313 2.04296875 1.59765625 C3.41134518 2.67169084 4.71768984 3.82454902 6 5 C6 5.66 6 6.32 6 7 C10.18378248 9.16402542 13.55767361 10.09922409 18.29101562 10.28955078 C46.75939129 11.45683423 70.78468549 25.53081388 90 46 C102.80384631 60.27340635 117 83.17627604 117 103 C117.72058594 103.26039063 118.44117188 103.52078125 119.18359375 103.7890625 C139.94094572 112.71386016 153.86828274 134.93161756 162 155 C167.84493415 170.44193894 171.50238989 188.78995921 167.61376953 205.03979492 C166.22708072 210.95573354 165.3702419 215.24407251 168.5 220.8125 C169.65587262 222.54890057 170.82248082 224.27820528 172 226 C178.94444408 239.53578083 183.58560164 253.70929064 183 269 C183.66 269.33 184.32 269.66 185 270 C182.99163073 297.9865442 176.71340614 324.60895482 156 345 C154.02457565 346.53222017 152.02542567 348.03451344 150 349.5 C144.67669126 353.63701427 143.82022303 356.90946638 142.7734375 363.41015625 C140.10976432 375.7733666 132.0659871 386.55624064 124 396 C123.43925781 396.66257812 122.87851562 397.32515625 122.30078125 398.0078125 C105.74740979 415.9371569 79.8650076 425.81266383 55.98583984 427.109375 C47.77845255 427.42421124 39.85525356 426.93216497 31.76953125 425.4375 C26.56284997 424.61500592 23.82142861 424.73560676 19.375 427.6875 C-6.46656752 443.88612271 -39.49207824 446.34843521 -68.875 440.1875 C-90.57510274 434.76247431 -111.03933899 424.76087476 -123.546875 405.453125 C-131.01524448 392.84523244 -135.19092416 379.90713827 -135.125 365.25 C-135.12886719 364.37472656 -135.13273438 363.49945312 -135.13671875 362.59765625 C-135.13542969 361.76621094 -135.13414062 360.93476562 -135.1328125 360.078125 C-135.13168457 359.31918945 -135.13055664 358.56025391 -135.12939453 357.77832031 C-135 356 -135 356 -134 355 C-126.92343727 353.68952542 -120.09817074 354.12284962 -113 355 C-113.03480469 355.77601563 -113.06960938 356.55203125 -113.10546875 357.3515625 C-113.49690953 372.97191358 -110.11086916 386.99055932 -100 399.1875 C-84.67216021 415.07642544 -63.40563499 420.62160616 -41.91577148 421.33178711 C-24.78585055 421.62312909 -6.39792612 418.62467316 8.265625 409.3515625 C20.03930109 401.9874982 20.03930109 401.9874982 25.67578125 402.0234375 C28.07991827 402.60642067 30.46862405 403.25591175 32.83984375 403.9609375 C51.38400629 409.24090455 73.17496161 403.93681979 89.71875 395.0078125 C103.30909168 386.69181771 114.38819252 376.30804977 120 361 C120.48911228 358.72261915 120.88413161 356.43926041 121.27612305 354.14331055 C123.00410993 344.09022127 123.00410993 344.09022127 126.515625 340.24609375 C129.26832524 338.30669131 132.06752374 336.64897404 135 335 C136.73226447 333.50103244 136.73226447 333.50103244 138.0625 332 C138.701875 331.34 139.34125 330.68 140 330 C140.66 330 141.32 330 142 330 C142 329.34 142 328.68 142 328 C143.11181641 326.90558594 143.11181641 326.90558594 144.24609375 325.7890625 C157.52614975 312.33947387 161.84115003 291.59646727 162.05859375 273.35449219 C161.79376571 262.71281888 159.49249561 252.0941924 155.76953125 242.15234375 C155 240 155 240 155 238 C152.58309824 240.33893718 150.27137448 242.68210418 148.0859375 245.2421875 C131.44220711 264.66996007 107.95892241 274.49308334 82.83984375 276.72265625 C76.17295127 277.20419172 69.98197347 277.36554679 63.375 276.23046875 C52.49720669 274.25586749 52.49720669 274.25586749 42.421875 277.77539062 C40.74269245 279.00535261 39.09053262 280.26525115 37.44140625 281.53515625 C29.0520348 287.92950919 15.65285095 292.11088085 5.25 291.9375 C1.18528122 290.76498497 -0.45877471 289.36338641 -3 286 C-4.26457332 282.28531588 -4.18028181 280.54084542 -2.9375 276.8125 C0.64414522 271.61333758 5.22211872 270.91609012 11.125 269.6875 C23.84062568 266.86662741 34.64349514 260.66171498 42.1875 249.87109375 C46.41765589 243.04937548 49.44525231 235.86622467 51.92285156 228.24194336 C53.23942976 224.34175214 54.26713751 221.92618517 58 220 C62.787821 219.46801989 64.86402545 219.27490986 68.9375 221.875 C71.971633 225.00107643 71.971633 225.00107643 72.0546875 227.92578125 C71.25965298 238.48591364 66.75989981 247.69459686 62 257 C87.38015927 256.33625071 111.26112983 252.46295473 130.1328125 233.90234375 C142.2293925 220.86287443 147.46430806 205.7131354 147 188 C146.39638918 180.77121505 145.10759 173.92493858 143 167 C143 165.68 143 164.36 143 163 C142.34 162.67 141.68 162.34 141 162 C140.30550203 160.00949328 139.64397853 158.00742026 139 156 C134.02372494 145.26172224 127.44919193 136.25846525 119 128 C118.91363281 128.63164062 118.82726562 129.26328125 118.73828125 129.9140625 C115.55564226 150.17783733 106.26154404 166.50734977 90.15625 179.25 C75.25062705 189.82818403 56.27983342 195.37977493 38 195 C33.79318048 194.25034185 31.55557174 192.76391114 29 189.25 C27.78466193 185.30015128 27.89609292 182.97406549 29 179 C31.81317297 175.52154963 33.78568941 174.47763755 38.1875 173.9375 C39.24582031 173.78539062 40.30414062 173.63328125 41.39453125 173.4765625 C43.26070089 173.22989652 45.12691276 172.9835259 46.99365234 172.74121094 C63.50778419 170.51658956 76.78095893 164.99500352 87.8046875 151.84765625 C96.69412509 139.61915131 98.62438329 123.50942598 96.71582031 108.81152344 C92.64214738 83.92170946 79.61541757 60.84526784 59 46 C48.83837922 38.74321927 48.83837922 38.74321927 37 36 C36.67 35.34 36.34 34.68 36 34 C33.66752185 33.37147066 31.30708533 32.84464754 28.9375 32.375 C27.64714844 32.11460937 26.35679687 31.85421875 25.02734375 31.5859375 C24.02832031 31.39257812 23.02929688 31.19921875 22 31 C22.50660156 32.32451172 22.50660156 32.32451172 23.0234375 33.67578125 C30.90438836 54.88146117 31.1999562 75.39392364 21.91552734 96.33569336 C19.11826667 102.23898416 15.43770334 107.20497509 11 112 C14.33934653 114.71788006 17.96577981 116.61572423 21.8125 118.5 C22.40353516 118.79519531 22.99457031 119.09039062 23.60351562 119.39453125 C26.64487574 120.90028642 29.70778632 122.32189654 32.83203125 123.64453125 C37.54941238 125.66294216 37.54941238 125.66294216 39 128 C40.22720771 132.9906447 40.61045539 134.84223979 38.1875 139.4375 C35.37874331 142.72775783 34.7932542 142.93615484 30.45703125 143.28515625 C25.37482811 143.21296261 21.27885151 141.48223144 16.6875 139.4375 C15.85154297 139.07398438 15.01558594 138.71046875 14.15429688 138.3359375 C7.68596615 135.45554818 1.75215585 132.14334976 -4 128 C-4.99 127.29230469 -5.98 126.58460938 -7 125.85546875 C-8.90316198 124.48013685 -10.79984317 123.09575556 -12.6875 121.69921875 C-14.4263868 120.42148943 -16.20455972 119.19696019 -18 118 C-18 117.34 -18 116.68 -18 116 C-18.56589844 115.76539063 -19.13179687 115.53078125 -19.71484375 115.2890625 C-32.14906937 108.27488394 -41.62789194 90.44326213 -47.6875 78.0625 C-48.19627686 77.05292236 -48.19627686 77.05292236 -48.71533203 76.02294922 C-51.01267675 71.06667452 -51.75969512 66.44815839 -51 61 C-48.89265493 57.62824789 -47.45164734 57.12545759 -43.625 56.0625 C-39.19253792 55.98607824 -37.66483407 56.48214018 -34 59 C-31.74086116 62.2848749 -30.02088335 65.80901104 -28.25 69.375 C-22.13119842 81.12523962 -15.71443187 91.84771488 -5 100 C5.32262162 83.96623722 10.02909582 67.76991241 6 48.8125 C2.48213723 36.96026142 -4.05174551 26.4803719 -13 18 C-13.80953125 17.23171875 -14.6190625 16.4634375 -15.453125 15.671875 C-29.57660752 3.23982751 -47.97537438 -3.9930858 -66.875 -3.04296875 C-67.926875 -3.02169922 -67.926875 -3.02169922 -69 -3 C-69.33 -3.33 -69.66 -3.66 -70 -4 C-83.0502363 -3.00125743 -95.92825096 -0.7416813 -105.25 9.1875 C-111.36326823 16.81659224 -112.99857175 25.95715252 -113.31640625 35.4921875 C-113.35830078 36.69101562 -113.40019531 37.88984375 -113.44335938 39.125 C-113.48267578 40.3625 -113.52199219 41.6 -113.5625 42.875 C-113.60568359 44.13570313 -113.64886719 45.39640625 -113.69335938 46.6953125 C-113.79909044 49.79675708 -113.90001588 52.89836483 -114 56 C-120.93 56 -127.86 56 -135 56 C-135.58762581 25.83520859 -135.58762581 25.83520859 -132 15 C-131.6596875 13.96230469 -131.319375 12.92460937 -130.96875 11.85546875 C-125.81239672 -1.99352063 -115.67750002 -12.38751891 -102.40234375 -18.6484375 C-68.15008749 -32.2549595 -27.64639214 -23.73101364 0 0 Z " fill="#040404" transform="translate(651,248)"/>
<path d="M0 0 C16.33472168 -0.49126982 33.93980341 2.8249823 46.953125 13.125 C47.77683594 13.75535156 48.60054688 14.38570312 49.44921875 15.03515625 C62.02531873 25.53158915 67.20087231 40.99277836 68.640625 56.8125 C69.13303198 64.76012148 69.49690848 73.49364957 66.953125 81.125 C60.353125 81.125 53.753125 81.125 46.953125 81.125 C46.92734375 79.18238281 46.9015625 77.23976563 46.875 75.23828125 C46.83319932 73.30848308 46.79125404 71.37868559 46.74560547 69.44897461 C46.7042676 67.49160295 46.68194133 65.53385878 46.66015625 63.57617188 C46.3965656 53.21705943 45.21009133 41.14585752 37.953125 33.125 C23.96782045 21.46636456 8.44266409 21.10137948 -9.046875 22.125 C-27.70118933 24.1429741 -47.07950651 34.13102114 -59.1328125 48.515625 C-65.34669866 56.98680042 -70.06300822 65.72680169 -72.046875 76.125 C-72.3871875 77.8265625 -72.3871875 77.8265625 -72.734375 79.5625 C-74.08133346 94.91782648 -70.8795369 106.29933124 -63.7890625 119.75390625 C-62.046875 123.125 -62.046875 123.125 -61.046875 126.125 C-57.52305813 123.57895403 -57.52305813 123.57895403 -55.046875 120.125 C-54.386875 120.125 -53.726875 120.125 -53.046875 120.125 C-52.64275391 119.25875 -52.64275391 119.25875 -52.23046875 118.375 C-51.02900583 116.09103089 -49.65932752 114.18655054 -48.109375 112.125 C-43.80758145 106.11872221 -40.43107259 99.63817271 -37.04321289 93.08203125 C-34.61924887 88.508945 -32.64549598 84.82834268 -28.046875 82.125 C-24.92387919 81.30147028 -22.18650665 81.37557617 -19.046875 82.125 C-16.42020271 83.89633559 -15.69741199 85.24987106 -14.046875 88.125 C-13.34915795 93.59698314 -15.17689283 97.18456814 -17.671875 101.875 C-18.22101563 102.93388428 -18.22101563 102.93388428 -18.78125 104.01416016 C-23.73495219 113.47772321 -29.12304946 121.96203964 -36.046875 130.125 C-36.72492188 130.93839844 -37.40296875 131.75179687 -38.1015625 132.58984375 C-51.4593696 148.07609264 -73.81831325 166.45771983 -94.921875 168.5 C-98.31661208 168.44373364 -99.03524152 168.13316819 -101.984375 166.0625 C-104.45286906 162.54676604 -105.046875 160.41116677 -105.046875 156.125 C-102.07348882 148.85672267 -93.91369336 146.56049226 -87.234375 143.4375 C-86.35072266 143.02177734 -85.46707031 142.60605469 -84.55664062 142.17773438 C-82.38781231 141.1577989 -80.21787664 140.14029905 -78.046875 139.125 C-78.046875 135.0974073 -80.03635784 132.88697548 -82.234375 129.6875 C-91.01048732 116.45026889 -94.44252982 103.75544438 -94.421875 87.9375 C-94.42243896 86.8441333 -94.42300293 85.7507666 -94.42358398 84.62426758 C-94.30490647 75.84796806 -92.92671317 68.39441482 -90.046875 60.125 C-89.69667917 58.79599595 -89.35496734 57.46439091 -89.046875 56.125 C-114.65418567 61.30094577 -134.11691423 74.46966458 -148.76611328 96.11230469 C-160.57786916 114.67427865 -164.26520562 136.20916034 -161.5859375 157.84765625 C-158.61071461 171.1311514 -151.12023359 181.97979418 -139.8828125 189.48828125 C-129.67936292 195.37704898 -118.85471704 197.73135543 -107.234375 198.5625 C-101.70729549 199.02768929 -97.8406269 200.04193328 -94.109375 204.375 C-92.65955722 208.12746955 -92.94571989 210.27095711 -94.046875 214.125 C-96.66302482 217.7717543 -98.16757252 218.94952729 -102.58984375 219.83203125 C-107.59576799 220.33907593 -112.34592015 219.69794078 -117.296875 218.9375 C-118.22564453 218.79731445 -119.15441406 218.65712891 -120.11132812 218.51269531 C-140.71898647 215.22209438 -158.14144993 205.42915493 -171.09765625 188.9140625 C-178.046875 178.97069138 -178.046875 178.97069138 -178.046875 174.125 C-178.706875 173.795 -179.366875 173.465 -180.046875 173.125 C-180.64111328 171.35913086 -180.64111328 171.35913086 -181.1171875 169.08984375 C-181.37822266 167.87651367 -181.37822266 167.87651367 -181.64453125 166.63867188 C-181.81855469 165.78853516 -181.99257813 164.93839844 -182.171875 164.0625 C-182.35363281 163.20849609 -182.53539062 162.35449219 -182.72265625 161.47460938 C-183.17163842 159.35966704 -183.61022851 157.24252353 -184.046875 155.125 C-186.24234222 154.89683859 -186.24234222 154.89683859 -187.96484375 156.92578125 C-204.07260945 174.75244794 -212.12383718 195.15127971 -212.046875 219.125 C-211.03752916 237.08761764 -203.72612534 251.33561155 -190.91796875 263.734375 C-172.74895289 278.86286168 -150.84067043 281.52889005 -128.046875 282.125 C-128.44519531 281.29097656 -128.84351563 280.45695312 -129.25390625 279.59765625 C-132.2599424 273.21257216 -135.14737746 266.93268827 -137.046875 260.125 C-137.335625 259.09375 -137.624375 258.0625 -137.921875 257 C-138.09325015 253.05837161 -136.89987509 250.56628589 -135.046875 247.125 C-132.02480105 245.11028403 -131.12960801 244.78780966 -127.671875 244.6875 C-126.92164063 244.64753906 -126.17140625 244.60757813 -125.3984375 244.56640625 C-121.72548366 245.43888532 -120.38128938 247.1891262 -118.046875 250.125 C-116.64659993 253.12942848 -115.63083447 256.22483616 -114.609375 259.375 C-111.32914342 268.84942913 -107.60169789 276.307233 -100.046875 283.125 C-99.56992187 283.60582031 -99.09296875 284.08664062 -98.6015625 284.58203125 C-91.9255249 290.95168065 -83.45574338 293.66111512 -74.609375 295.6875 C-69.27585739 296.92850148 -65.88342333 298.41390485 -62.734375 303.0625 C-61.84253426 305.73802223 -61.57828525 307.31346147 -62.046875 310.125 C-64.64802143 314.35186295 -65.82479863 315.76052108 -70.609375 317.1875 C-76.29228623 317.49786615 -81.64722201 315.69669718 -87.046875 314.125 C-87.92988281 313.90714844 -88.81289063 313.68929688 -89.72265625 313.46484375 C-96.58651827 311.68216108 -102.23077272 308.51419098 -107.54614258 303.79345703 C-110.91360673 300.99527207 -113.15426388 299.76678101 -117.59765625 300.0390625 C-119.18900188 300.24668646 -120.77669246 300.48428476 -122.359375 300.75 C-123.16955078 300.85957031 -123.97972656 300.96914063 -124.81445312 301.08203125 C-129.06092397 301.6474837 -129.06092397 301.6474837 -133.046875 303.125 C-163.10674964 302.18371432 -191.04896714 294.18440714 -212.35546875 271.98828125 C-214.67611088 269.43182329 -216.88995407 266.82115116 -219.046875 264.125 C-222.19472676 267.61461852 -223.13418941 271.40880121 -224.171875 275.875 C-224.34074219 276.55304688 -224.50960937 277.23109375 -224.68359375 277.9296875 C-229.98104421 299.8703091 -227.21788853 323.92136929 -215.75390625 343.51171875 C-208.59228774 354.47538644 -199.82264091 361.94115606 -189.046875 369.125 C-188.32285613 371.93242011 -187.74582203 374.65430064 -187.234375 377.5 C-183.8268458 394.25880288 -175.3908625 407.12321237 -161.33203125 417.05859375 C-142.08403077 429.16583781 -120.42701285 433.19411597 -98.046875 429.125 C-96.49984405 428.75068011 -94.95659231 428.35947501 -93.421875 427.9375 C-89.32192371 426.95047469 -86.69358524 427.13761711 -83.046875 429.32421875 C-82.386875 429.81535156 -81.726875 430.30648438 -81.046875 430.8125 C-60.06072308 445.3012837 -32.47380941 449.49031749 -7.609375 445 C3.57655881 442.56379969 13.76010678 438.09243898 23.68359375 432.421875 C25.74267066 431.24525962 27.82186627 430.16368242 29.953125 429.125 C29.953125 428.465 29.953125 427.805 29.953125 427.125 C30.613125 427.125 31.273125 427.125 31.953125 427.125 C32.22511719 426.5371875 32.49710937 425.949375 32.77734375 425.34375 C33.92818121 423.17207001 35.1990432 421.50985831 36.765625 419.625 C43.86162079 410.35498589 45.96943095 400.15721899 46.515625 388.8125 C46.55880859 387.97654297 46.60199219 387.14058594 46.64648438 386.27929688 C46.75197807 384.22803065 46.85299815 382.1765352 46.953125 380.125 C51.31642382 379.30000652 54.59011246 379.19006874 58.953125 380.125 C59.283125 379.465 59.613125 378.805 59.953125 378.125 C59.953125 378.785 59.953125 379.445 59.953125 380.125 C61.9021875 380.0940625 61.9021875 380.0940625 63.890625 380.0625 C65.24478133 380.04100546 66.60068583 380.05351801 67.953125 380.125 C69.89325028 382.06512528 69.192447 385.61253339 69.203125 388.25 C69.19234172 407.46365587 63.51573482 424.45053652 50.578125 438.75 C49.711875 439.53375 48.845625 440.3175 47.953125 441.125 C47.25832031 441.80046875 46.56351562 442.4759375 45.84765625 443.171875 C31.02178431 457.219919 11.89748909 464.09209792 -8.046875 467.125 C-9.23410156 467.32029297 -9.23410156 467.32029297 -10.4453125 467.51953125 C-34.65796196 470.8949006 -60.37607047 466.13161629 -82.046875 455.125 C-83.35764513 454.1288147 -84.65381968 453.11251866 -85.921875 452.0625 C-90.9990233 448.61809102 -97.61781652 450.67045168 -103.328125 451.4921875 C-128.03993972 455.01814155 -154.71418842 448.55134408 -175 434.0078125 C-177.40400661 432.10044199 -179.73346063 430.140688 -182.046875 428.125 C-183.0059375 427.37476563 -183.965 426.62453125 -184.953125 425.8515625 C-188.51723304 422.87949898 -191.23032102 419.40295939 -193.984375 415.6875 C-194.50580078 414.98447754 -195.02722656 414.28145508 -195.56445312 413.55712891 C-201.83379713 404.90270838 -206.41638011 396.23591414 -208.859375 385.75 C-210.54281457 379.26911889 -213.05697167 376.71799646 -218.46484375 372.95703125 C-233.73964604 362.1190853 -243.95180852 340.04380592 -247.046875 322.125 C-250.81737929 297.07807865 -249.78572717 269.96350383 -235.234375 248.3125 C-232.40252818 244.04937268 -231.19246611 241.35825443 -232.046875 236.125 C-232.21421143 235.49827393 -232.38154785 234.87154785 -232.55395508 234.22583008 C-238.51857662 208.80454807 -230.59969428 181.97710055 -217.328125 160.3203125 C-214.06866394 155.50799499 -210.40732497 151.00045253 -206.734375 146.5 C-206.30141113 145.96600586 -205.86844727 145.43201172 -205.42236328 144.88183594 C-204.34327069 143.58964701 -203.1998357 142.35173333 -202.046875 141.125 C-201.386875 141.125 -200.726875 141.125 -200.046875 141.125 C-200.046875 140.465 -200.046875 139.805 -200.046875 139.125 C-198.18415877 137.53263015 -196.33031397 136.07143353 -194.359375 134.625 C-193.82892578 134.22152344 -193.29847656 133.81804687 -192.75195312 133.40234375 C-190.27937492 131.56383775 -188.19639464 130.17137396 -185.23828125 129.25390625 C-184.51511719 128.88136719 -183.79195313 128.50882813 -183.046875 128.125 C-182.02851023 125.15363826 -182.02851023 125.15363826 -181.671875 121.5625 C-178.35577459 100.99567514 -166.8801912 83.25077202 -153.046875 68.125 C-151.95439453 66.90876953 -151.95439453 66.90876953 -150.83984375 65.66796875 C-134.67175353 48.53999191 -111.51855658 37.07619113 -88.046875 35.125 C-85.98341846 35.27937331 -83.92081899 35.445744 -81.859375 35.625 C-78.10399699 35.69873124 -76.55742038 35.51108012 -73.53125 33.22265625 C-71.87673065 31.49074809 -70.2593142 29.72282426 -68.67578125 27.92578125 C-64.12489756 23.07736579 -58.60890853 19.71095702 -53.046875 16.125 C-52.22574219 15.56941406 -51.40460938 15.01382813 -50.55859375 14.44140625 C-35.53237889 4.71856134 -17.6232426 1.07622856 0 0 Z " fill="#040404" transform="translate(439.046875,222.875)"/>
<path d="M0 0 C3.57199616 2.67899712 5.20708905 4.66673156 6 9 C6.08671604 10.43434377 6.13116424 11.87166222 6.140625 13.30859375 C6.44080173 29.11738578 9.6792276 43.10740107 20.91015625 55.02734375 C22.86938201 56.80739578 24.87897106 58.41720208 27 60 C27.66515625 60.52207031 28.3303125 61.04414062 29.015625 61.58203125 C38.70169124 68.66720933 50.16137818 71.34186029 61.8203125 73.12890625 C65.39858589 74.10919491 66.78088687 75.06246895 69 78 C70.40574204 81.8638702 70.37437641 85.093615 68.8125 88.875 C66.42567444 91.67334721 64.37834994 92.79597574 60.73046875 93.3359375 C41.06898133 93.63795728 21.2153527 84.22358391 7 71 C-1.61075215 62.22754358 -12 48.82129495 -12 36 C-14.37697919 36.76510908 -16.75145221 37.53687436 -19.125 38.3125 C-20.12273437 38.63250977 -20.12273437 38.63250977 -21.140625 38.95898438 C-24.34043298 40.0099017 -27.24686028 41.12387254 -30.26953125 42.640625 C-33.79645655 44.39651914 -36.10584416 44.49561983 -40 44 C-43.30724503 42.08914732 -44.7058443 40.55154193 -46.5 37.1875 C-47.18352073 32.83005535 -46.23350866 30.76904587 -44 27 C-39.81140353 23.77705646 -35.56749362 21.92283119 -30.5625 20.375 C-29.93279297 20.17132812 -29.30308594 19.96765625 -28.65429688 19.7578125 C-24.46133107 18.41330548 -20.23802671 17.1921159 -16 16 C-15.96261719 15.40832031 -15.92523438 14.81664062 -15.88671875 14.20703125 C-15.48947172 9.43227778 -15.05756639 5.88075734 -12 2 C-7.98850232 -0.67433178 -4.71559339 -0.81902411 0 0 Z " fill="#040404" transform="translate(299,538)"/>
<path d="M0 0 C2.75569447 2.18159145 4.43588747 3.87177494 6 7 C6.13415472 9.6723621 6.04318541 12.32250488 6 15 C9.47528413 16.73764206 13.2324385 17.75642715 16.9296875 18.9296875 C31.53935706 23.61873264 31.53935706 23.61873264 35.9375 27.875 C37.35197294 30.70394588 37.87305047 32.82626171 38 36 C36.05345212 41.32739421 36.05345212 41.32739421 33.15234375 43.1796875 C28.86772711 44.81266299 24.11746344 43.9415517 19.98828125 42.10546875 C18.69803268 41.40669316 17.41157492 40.70087495 16.12890625 39.98828125 C12.29241807 38.207306 8.15475276 37.64705166 4 37 C3.72027344 37.88300781 3.44054687 38.76601563 3.15234375 39.67578125 C-3.41927452 59.34837485 -16.16146179 74.74457288 -34.75 84.25 C-45.84512896 89.71809777 -59.45706428 94.73244968 -72 93 C-74.87029869 91.20606332 -76.49131638 90.01736724 -78 87 C-78.23828125 84.9765625 -78.23828125 84.9765625 -78.3125 82.625 C-78.34988281 81.85414063 -78.38726563 81.08328125 -78.42578125 80.2890625 C-77.79591109 76.90278808 -76.82983623 75.99901993 -74 74 C-70.63578834 72.97214268 -67.20689177 72.38298906 -63.75 71.75 C-48.09310757 68.49505165 -34.98517871 63.00240299 -25 50 C-17.13109791 37.53728214 -14.80730696 25.86529858 -15.15234375 11.34375 C-14.94293193 6.74742894 -13.86510403 4.53924615 -11 1 C-7.52736727 -0.73631636 -3.78806987 -0.60190402 0 0 Z " fill="#040404" transform="translate(734,538)"/>
<path d="M0 0 C0.66 0 1.32 0 2 0 C1.71125 0.53625 1.4225 1.0725 1.125 1.625 C-2.00175545 8.22592818 -2.23075638 13.79527302 -2 21 C-2.33 21 -2.66 21 -3 21 C-4.7610915 7.19840245 -4.7610915 7.19840245 -2.0625 2.625 C-1.381875 1.75875 -0.70125 0.8925 0 0 Z " fill="#232322" transform="translate(723,539)"/>
<path d="M0 0 C1.21236328 0.02707031 1.21236328 0.02707031 2.44921875 0.0546875 C3.37154297 0.08949219 3.37154297 0.08949219 4.3125 0.125 C4.3125 0.455 4.3125 0.785 4.3125 1.125 C3.075 1.2075 1.8375 1.29 0.5625 1.375 C-2.25221667 1.75361676 -3.66019758 2.10819851 -6.125 3.625 C-8.40589177 7.27442683 -8.50649638 10.88951519 -8.6875 15.125 C-9.0175 15.125 -9.3475 15.125 -9.6875 15.125 C-11.10120507 9.85573566 -10.25560865 6.89434463 -7.6875 2.125 C-4.48369983 -0.01086678 -3.66810033 -0.10632175 0 0 Z " fill="#262625" transform="translate(311.6875,467.875)"/>
<path d="M0 0 C1.8871875 0.061875 1.8871875 0.061875 3.8125 0.125 C3.8125 0.455 3.8125 0.785 3.8125 1.125 C2.265625 1.2178125 2.265625 1.2178125 0.6875 1.3125 C-4.07212827 2.31048657 -5.72342963 3.82990867 -9.1875 7.125 C-7.4328046 1.99589037 -5.59164481 -0.18333262 0 0 Z " fill="#202020" transform="translate(713.1875,467.875)"/>
<path d="M0 0 C0.66 0.33 1.32 0.66 2 1 C1.38511719 1.59748047 1.38511719 1.59748047 0.7578125 2.20703125 C0.21898437 2.73683594 -0.31984375 3.26664063 -0.875 3.8125 C-1.40867187 4.33457031 -1.94234375 4.85664062 -2.4921875 5.39453125 C-4.20776561 7.13259904 -4.20776561 7.13259904 -6 10 C-5.58578031 5.16743695 -3.53586014 3.17320782 0 0 Z " fill="#201F1F" transform="translate(259,562)"/>
<path d="M0 0 C0.99 0 1.98 0 3 0 C2.67 0.99 2.34 1.98 2 3 C1.34 2.67 0.68 2.34 0 2 C0 1.34 0 0.68 0 0 Z " fill="#292828" transform="translate(392,562)"/>
<path d="M0 0 C1.32 0.33 2.64 0.66 4 1 C3.01 1.495 3.01 1.495 2 2 C1.34 1.34 0.68 0.68 0 0 Z " fill="#343131" transform="translate(441,245)"/>
<path d="M0 0 C0.66 0.66 1.32 1.32 2 2 C1.01 2.495 1.01 2.495 0 3 C0 2.01 0 1.02 0 0 Z " fill="#2C2B2B" transform="translate(336,531)"/>
<path d="M0 0 C4 1 4 1 4 1 Z " fill="#30302F" transform="translate(287,525)"/>
<path d="M0 0 C0.99 1.485 0.99 1.485 2 3 C1.34 3 0.68 3 0 3 C0 2.01 0 1.02 0 0 Z " fill="#1D1C1D" transform="translate(596,426)"/>
<path d="M0 0 C0.66 0 1.32 0 2 0 C2 0.66 2 1.32 2 2 C1.34 2 0.68 2 0 2 C0 1.34 0 0.68 0 0 Z " fill="#302F2F" transform="translate(449,245)"/>
<path d="M0 0 C0.66 0.66 1.32 1.32 2 2 C1.34 2 0.68 2 0 2 C0 1.34 0 0.68 0 0 Z " fill="#222220" transform="translate(530,600)"/>
<path d="" fill="#333434" transform="translate(0,0)"/>
<path d="M0 0 C0.66 0.66 1.32 1.32 2 2 C1.34 2 0.68 2 0 2 C0 1.34 0 0.68 0 0 Z " fill="#1B1B1C" transform="translate(529,470)"/>
<path d="M0 0 C0.66 0.66 1.32 1.32 2 2 C1.34 2 0.68 2 0 2 C0 1.34 0 0.68 0 0 Z " fill="#302F2E" transform="translate(312,465)"/>
<path d="M0 0 C0.99 0.495 0.99 0.495 2 1 C1.01 1.495 1.01 1.495 0 2 C0 1.34 0 0.68 0 0 Z " fill="#31302F" transform="translate(299,438)"/>
<path d="M0 0 C0.66 0.66 1.32 1.32 2 2 C1.34 2 0.68 2 0 2 C0 1.34 0 0.68 0 0 Z " fill="#2E2D2D" transform="translate(268,413)"/>
<path d="" fill="#2F2E2E" transform="translate(0,0)"/>
<path d="M0 0 C0.33 0.66 0.66 1.32 1 2 C0.34 1.67 -0.32 1.34 -1 1 C-0.67 0.67 -0.34 0.34 0 0 Z " fill="#2E302E" transform="translate(705,292)"/>
<path d="M0 0 C2 1 2 1 2 1 Z " fill="#323031" transform="translate(597,691)"/>
<path d="M0 0 C2 1 2 1 2 1 Z " fill="#343332" transform="translate(401,691)"/>
<path d="M0 0 C2 1 2 1 2 1 Z " fill="#2D2C2B" transform="translate(439,664)"/>
<path d="M0 0 C2 1 2 1 2 1 Z " fill="#2F2F2D" transform="translate(692,652)"/>
<path d="M0 0 C2 1 2 1 2 1 Z " fill="#312F2E" transform="translate(318,652)"/>
<path d="M0 0 C2 1 2 1 2 1 Z " fill="#2E2D2E" transform="translate(725,648)"/>
<path d="M0 0 C2 1 2 1 2 1 Z " fill="#2B2A29" transform="translate(472,644)"/>
<path d="" fill="#252524" transform="translate(0,0)"/>
<path d="" fill="#222321" transform="translate(0,0)"/>
<path d="M0 0 C2 1 2 1 2 1 Z " fill="#2F2E2E" transform="translate(661,610)"/>
<path d="" fill="#232223" transform="translate(0,0)"/>
<path d="" fill="#2C2D2B" transform="translate(0,0)"/>
<path d="" fill="#29292A" transform="translate(0,0)"/>
<path d="M0 0 C2 1 2 1 2 1 Z " fill="#2C2A2A" transform="translate(278,554)"/>
<path d="" fill="#272627" transform="translate(0,0)"/>
<path d="" fill="#2E2E2B" transform="translate(0,0)"/>
<path d="" fill="#313132" transform="translate(0,0)"/>
<path d="" fill="#19191A" transform="translate(0,0)"/>
<path d="M0 0 C2 1 2 1 2 1 Z " fill="#302F30" transform="translate(299,526)"/>
<path d="M0 0 C2 1 2 1 2 1 Z " fill="#2A2929" transform="translate(318,524)"/>
<path d="" fill="#30302F" transform="translate(0,0)"/>
<path d="" fill="#323133" transform="translate(0,0)"/>
<path d="" fill="#323230" transform="translate(0,0)"/>
<path d="M0 0 C2 1 2 1 2 1 Z " fill="#30302F" transform="translate(297,436)"/>
<path d="" fill="#2D2E2D" transform="translate(0,0)"/>
<path d="" fill="#302F2E" transform="translate(0,0)"/>
<path d="M0 0 C2 1 2 1 2 1 Z " fill="#1C1E1D" transform="translate(562,428)"/>
<path d="" fill="#2D2C2B" transform="translate(0,0)"/>
<path d="M0 0 C2 1 2 1 2 1 Z " fill="#303030" transform="translate(690,420)"/>
<path d="" fill="#2F2E2F" transform="translate(0,0)"/>
<path d="" fill="#2D2B2C" transform="translate(0,0)"/>
<path d="" fill="#2E2E2D" transform="translate(0,0)"/>
<path d="M0 0 C2 1 2 1 2 1 Z " fill="#302D2D" transform="translate(674,391)"/>
<path d="" fill="#1E1E1D" transform="translate(0,0)"/>
<path d="M0 0 C2 1 2 1 2 1 Z " fill="#2D2B2A" transform="translate(649,379)"/>
<path d="" fill="#1C1D1D" transform="translate(0,0)"/>
<path d="M0 0 C2 1 2 1 2 1 Z " fill="#1D1B1C" transform="translate(432,368)"/>
<path d="" fill="#302F2D" transform="translate(0,0)"/>
<path d="M0 0 C2 1 2 1 2 1 Z " fill="#1E1F1D" transform="translate(523,350)"/>
<path d="M0 0 C2 1 2 1 2 1 Z " fill="#1E1F1E" transform="translate(498,350)"/>
<path d="" fill="#2F2C2E" transform="translate(0,0)"/>
<path d="" fill="#2C2B2D" transform="translate(0,0)"/>
<path d="" fill="#2E2E2C" transform="translate(0,0)"/>
<path d="" fill="#2E2D2D" transform="translate(0,0)"/>
<path d="" fill="#2A2827" transform="translate(0,0)"/>
<path d="M0 0 C2 1 2 1 2 1 Z " fill="#21211F" transform="translate(485,322)"/>
<path d="M0 0 C2 1 2 1 2 1 Z " fill="#20201F" transform="translate(488,321)"/>
<path d="" fill="#292928" transform="translate(0,0)"/>
<path d="" fill="#2E2E2F" transform="translate(0,0)"/>
<path d="M0 0 C2 1 2 1 2 1 Z " fill="#343333" transform="translate(703,265)"/>
<path d="M0 0 C2 1 2 1 2 1 Z " fill="#333131" transform="translate(701,264)"/>
<path d="M0 0 C2 1 2 1 2 1 Z " fill="#302F2F" transform="translate(404,253)"/>
<path d="M0 0 C2 1 2 1 2 1 Z " fill="#333131" transform="translate(595,246)"/>
<path d="M0 0 C2 1 2 1 2 1 Z " fill="#302F30" transform="translate(568,246)"/>
<path d="M0 0 C2 1 2 1 2 1 Z " fill="#303031" transform="translate(427,246)"/>
<path d="M0 0 C2 1 2 1 2 1 Z " fill="#333132" transform="translate(434,245)"/>
<path d="" fill="#343534" transform="translate(0,0)"/>
<path d="" fill="#313131" transform="translate(0,0)"/>
<path d="" fill="#343332" transform="translate(0,0)"/>
<path d="" fill="#343333" transform="translate(0,0)"/>
<path d="" fill="#313130" transform="translate(0,0)"/>
<path d="" fill="#312E2E" transform="translate(0,0)"/>
<path d="" fill="#2E2D2C" transform="translate(0,0)"/>
<path d="" fill="#323231" transform="translate(0,0)"/>
<path d="" fill="#302D2D" transform="translate(0,0)"/>
<path d="" fill="#2B292A" transform="translate(0,0)"/>
<path d="" fill="#302E2E" transform="translate(0,0)"/>
<path d="" fill="#31312E" transform="translate(0,0)"/>
<path d="" fill="#323131" transform="translate(0,0)"/>
<path d="" fill="#323131" transform="translate(0,0)"/>
<path d="" fill="#2F2E2F" transform="translate(0,0)"/>
<path d="" fill="#2D2B2B" transform="translate(0,0)"/>
<path d="" fill="#2F2E2E" transform="translate(0,0)"/>
<path d="" fill="#323131" transform="translate(0,0)"/>
<path d="" fill="#323231" transform="translate(0,0)"/>
<path d="" fill="#333331" transform="translate(0,0)"/>
<path d="" fill="#312F30" transform="translate(0,0)"/>
<path d="" fill="#312F30" transform="translate(0,0)"/>
<path d="" fill="#323331" transform="translate(0,0)"/>
<path d="" fill="#302F2E" transform="translate(0,0)"/>
<path d="" fill="#2E2E2E" transform="translate(0,0)"/>
<path d="" fill="#2E2D2B" transform="translate(0,0)"/>
<path d="" fill="#2F302D" transform="translate(0,0)"/>
<path d="" fill="#2D2C29" transform="translate(0,0)"/>
<path d="" fill="#312F2F" transform="translate(0,0)"/>
<path d="" fill="#2B2D2B" transform="translate(0,0)"/>
<path d="" fill="#292A2A" transform="translate(0,0)"/>
<path d="" fill="#2A2C2B" transform="translate(0,0)"/>
<path d="" fill="#2C2C2E" transform="translate(0,0)"/>
<path d="" fill="#312D2F" transform="translate(0,0)"/>
<path d="" fill="#2E2E2E" transform="translate(0,0)"/>
<path d="" fill="#333130" transform="translate(0,0)"/>
<path d="" fill="#302E2D" transform="translate(0,0)"/>
<path d="" fill="#302F2E" transform="translate(0,0)"/>
<path d="" fill="#312E2E" transform="translate(0,0)"/>
<path d="" fill="#2C2B29" transform="translate(0,0)"/>
<path d="" fill="#2D302F" transform="translate(0,0)"/>
<path d="" fill="#2F2E2E" transform="translate(0,0)"/>
<path d="" fill="#2C2A2E" transform="translate(0,0)"/>
<path d="" fill="#292A2A" transform="translate(0,0)"/>
<path d="" fill="#2A2729" transform="translate(0,0)"/>
<path d="" fill="#2D2F2F" transform="translate(0,0)"/>
<path d="" fill="#252725" transform="translate(0,0)"/>
<path d="" fill="#2E2C2B" transform="translate(0,0)"/>
<path d="" fill="#303031" transform="translate(0,0)"/>
<path d="" fill="#2F2F2D" transform="translate(0,0)"/>
<path d="" fill="#2E2F2E" transform="translate(0,0)"/>
<path d="" fill="#2F2D2C" transform="translate(0,0)"/>
<path d="" fill="#222523" transform="translate(0,0)"/>
<path d="" fill="#302C2E" transform="translate(0,0)"/>
<path d="" fill="#2F2E2D" transform="translate(0,0)"/>
<path d="" fill="#2E2E31" transform="translate(0,0)"/>
<path d="" fill="#2E2D2F" transform="translate(0,0)"/>
<path d="" fill="#252425" transform="translate(0,0)"/>
<path d="" fill="#2E2B2A" transform="translate(0,0)"/>
<path d="" fill="#2E2B2B" transform="translate(0,0)"/>
<path d="" fill="#2F3132" transform="translate(0,0)"/>
<path d="" fill="#2E2C2D" transform="translate(0,0)"/>
<path d="" fill="#303030" transform="translate(0,0)"/>
<path d="" fill="#2F2E2E" transform="translate(0,0)"/>
<path d="" fill="#2A292B" transform="translate(0,0)"/>
<path d="" fill="#222222" transform="translate(0,0)"/>
<path d="" fill="#252525" transform="translate(0,0)"/>
<path d="" fill="#222321" transform="translate(0,0)"/>
<path d="" fill="#2E2D2B" transform="translate(0,0)"/>
<path d="" fill="#222221" transform="translate(0,0)"/>
<path d="" fill="#202020" transform="translate(0,0)"/>
<path d="" fill="#26231F" transform="translate(0,0)"/>
<path d="" fill="#222322" transform="translate(0,0)"/>
<path d="" fill="#20211F" transform="translate(0,0)"/>
<path d="" fill="#252523" transform="translate(0,0)"/>
<path d="" fill="#222322" transform="translate(0,0)"/>
<path d="" fill="#252222" transform="translate(0,0)"/>
<path d="" fill="#232423" transform="translate(0,0)"/>
<path d="" fill="#2C2C2B" transform="translate(0,0)"/>
<path d="" fill="#2D2D2B" transform="translate(0,0)"/>
<path d="" fill="#2C2A2C" transform="translate(0,0)"/>
<path d="" fill="#2F2F2F" transform="translate(0,0)"/>
<path d="" fill="#232324" transform="translate(0,0)"/>
<path d="" fill="#2D2D2B" transform="translate(0,0)"/>
<path d="" fill="#2D2C2B" transform="translate(0,0)"/>
<path d="" fill="#2E2C2C" transform="translate(0,0)"/>
<path d="" fill="#323232" transform="translate(0,0)"/>
<path d="" fill="#2F2F2F" transform="translate(0,0)"/>
<path d="" fill="#2D2D2D" transform="translate(0,0)"/>
<path d="" fill="#2C2C2B" transform="translate(0,0)"/>
<path d="" fill="#2E2B2D" transform="translate(0,0)"/>
<path d="" fill="#302B2D" transform="translate(0,0)"/>
<path d="" fill="#313230" transform="translate(0,0)"/>
<path d="" fill="#2D2E2C" transform="translate(0,0)"/>
<path d="" fill="#312F2D" transform="translate(0,0)"/>
<path d="" fill="#323130" transform="translate(0,0)"/>
<path d="" fill="#313033" transform="translate(0,0)"/>
<path d="" fill="#2F2F2E" transform="translate(0,0)"/>
<path d="" fill="#2F2D2D" transform="translate(0,0)"/>
<path d="" fill="#312F30" transform="translate(0,0)"/>
<path d="" fill="#303031" transform="translate(0,0)"/>
<path d="" fill="#312F30" transform="translate(0,0)"/>
<path d="" fill="#2B2A29" transform="translate(0,0)"/>
<path d="" fill="#322F30" transform="translate(0,0)"/>
<path d="" fill="#2E2A2C" transform="translate(0,0)"/>
<path d="" fill="#302D2F" transform="translate(0,0)"/>
<path d="" fill="#2C2D2D" transform="translate(0,0)"/>
<path d="" fill="#2C2B2D" transform="translate(0,0)"/>
<path d="" fill="#343233" transform="translate(0,0)"/>
<path d="" fill="#2E2E2F" transform="translate(0,0)"/>
<path d="" fill="#32322F" transform="translate(0,0)"/>
<path d="" fill="#2D2E2D" transform="translate(0,0)"/>
<path d="" fill="#2E2D2F" transform="translate(0,0)"/>
<path d="" fill="#2A2927" transform="translate(0,0)"/>
<path d="" fill="#333433" transform="translate(0,0)"/>
<path d="" fill="#363334" transform="translate(0,0)"/>
<path d="" fill="#282728" transform="translate(0,0)"/>
<path d="" fill="#2D2D2C" transform="translate(0,0)"/>
<path d="" fill="#343232" transform="translate(0,0)"/>
<path d="" fill="#2C2929" transform="translate(0,0)"/>
<path d="" fill="#2C2B2A" transform="translate(0,0)"/>
<path d="" fill="#2F2D2D" transform="translate(0,0)"/>
<path d="" fill="#1B1B1B" transform="translate(0,0)"/>
<path d="" fill="#262626" transform="translate(0,0)"/>
<path d="" fill="#1C1B1B" transform="translate(0,0)"/>
<path d="" fill="#262625" transform="translate(0,0)"/>
<path d="" fill="#2F2B2C" transform="translate(0,0)"/>
<path d="" fill="#2E2D2E" transform="translate(0,0)"/>
<path d="" fill="#302E2F" transform="translate(0,0)"/>
<path d="" fill="#343130" transform="translate(0,0)"/>
<path d="" fill="#2E2E2D" transform="translate(0,0)"/>
<path d="" fill="#2F2F2E" transform="translate(0,0)"/>
<path d="" fill="#1A1A1B" transform="translate(0,0)"/>
<path d="" fill="#272726" transform="translate(0,0)"/>
<path d="" fill="#2E2E2F" transform="translate(0,0)"/>
<path d="" fill="#2E2C2C" transform="translate(0,0)"/>
<path d="" fill="#312F2F" transform="translate(0,0)"/>
<path d="" fill="#2E2E2C" transform="translate(0,0)"/>
<path d="" fill="#2E2D2C" transform="translate(0,0)"/>
<path d="" fill="#2F2D2E" transform="translate(0,0)"/>
<path d="" fill="#2C2A2C" transform="translate(0,0)"/>
<path d="" fill="#2F2E2E" transform="translate(0,0)"/>
<path d="" fill="#2E2B2B" transform="translate(0,0)"/>
<path d="" fill="#333130" transform="translate(0,0)"/>
<path d="" fill="#282628" transform="translate(0,0)"/>
<path d="" fill="#2F2F2E" transform="translate(0,0)"/>
<path d="" fill="#2E2D2B" transform="translate(0,0)"/>
<path d="" fill="#181818" transform="translate(0,0)"/>
<path d="" fill="#303030" transform="translate(0,0)"/>
<path d="" fill="#302F30" transform="translate(0,0)"/>
<path d="" fill="#313131" transform="translate(0,0)"/>
<path d="" fill="#343433" transform="translate(0,0)"/>
<path d="" fill="#2F2D2F" transform="translate(0,0)"/>
<path d="" fill="#2A2B2B" transform="translate(0,0)"/>
<path d="" fill="#2E2C2C" transform="translate(0,0)"/>
<path d="" fill="#2E2D2D" transform="translate(0,0)"/>
<path d="" fill="#2E2A2C" transform="translate(0,0)"/>
<path d="" fill="#31302F" transform="translate(0,0)"/>
<path d="" fill="#302F2F" transform="translate(0,0)"/>
<path d="" fill="#333131" transform="translate(0,0)"/>
<path d="" fill="#191916" transform="translate(0,0)"/>
<path d="" fill="#171816" transform="translate(0,0)"/>
<path d="" fill="#2F2E2E" transform="translate(0,0)"/>
<path d="" fill="#31322F" transform="translate(0,0)"/>
<path d="" fill="#343234" transform="translate(0,0)"/>
<path d="" fill="#1B1819" transform="translate(0,0)"/>
<path d="" fill="#171717" transform="translate(0,0)"/>
<path d="" fill="#2E2C2A" transform="translate(0,0)"/>
<path d="" fill="#2F2F2F" transform="translate(0,0)"/>
<path d="" fill="#31302F" transform="translate(0,0)"/>
<path d="" fill="#171817" transform="translate(0,0)"/>
<path d="" fill="#2D2A2A" transform="translate(0,0)"/>
<path d="" fill="#262426" transform="translate(0,0)"/>
<path d="" fill="#302E2D" transform="translate(0,0)"/>
<path d="" fill="#181716" transform="translate(0,0)"/>
<path d="" fill="#2C2D2B" transform="translate(0,0)"/>
<path d="" fill="#2F2C2B" transform="translate(0,0)"/>
<path d="" fill="#2F2C2C" transform="translate(0,0)"/>
<path d="" fill="#171715" transform="translate(0,0)"/>
<path d="" fill="#151414" transform="translate(0,0)"/>
<path d="" fill="#282726" transform="translate(0,0)"/>
<path d="" fill="#30302E" transform="translate(0,0)"/>
<path d="" fill="#2F2F2D" transform="translate(0,0)"/>
<path d="" fill="#171715" transform="translate(0,0)"/>
<path d="" fill="#2A2627" transform="translate(0,0)"/>
<path d="" fill="#2D2A2B" transform="translate(0,0)"/>
<path d="" fill="#2C292B" transform="translate(0,0)"/>
<path d="" fill="#2D2A2B" transform="translate(0,0)"/>
<path d="" fill="#323032" transform="translate(0,0)"/>
<path d="" fill="#2A2626" transform="translate(0,0)"/>
<path d="" fill="#191819" transform="translate(0,0)"/>
<path d="" fill="#31302E" transform="translate(0,0)"/>
<path d="" fill="#313130" transform="translate(0,0)"/>
<path d="" fill="#33312F" transform="translate(0,0)"/>
<path d="" fill="#302E2E" transform="translate(0,0)"/>
<path d="" fill="#2D302F" transform="translate(0,0)"/>
<path d="" fill="#2E2C2F" transform="translate(0,0)"/>
<path d="" fill="#312F30" transform="translate(0,0)"/>
<path d="" fill="#2E2B2D" transform="translate(0,0)"/>
<path d="" fill="#2F2B2D" transform="translate(0,0)"/>
<path d="" fill="#302D2E" transform="translate(0,0)"/>
<path d="" fill="#313132" transform="translate(0,0)"/>
<path d="" fill="#1A1A18" transform="translate(0,0)"/>
<path d="" fill="#2D2D2F" transform="translate(0,0)"/>
<path d="" fill="#302F2F" transform="translate(0,0)"/>
<path d="" fill="#1D1B1B" transform="translate(0,0)"/>
<path d="" fill="#343433" transform="translate(0,0)"/>
<path d="" fill="#1B1B1B" transform="translate(0,0)"/>
<path d="" fill="#1B1A1B" transform="translate(0,0)"/>
<path d="" fill="#323133" transform="translate(0,0)"/>
<path d="" fill="#2E2E2F" transform="translate(0,0)"/>
<path d="" fill="#1E201F" transform="translate(0,0)"/>
<path d="" fill="#2D2D2D" transform="translate(0,0)"/>
<path d="" fill="#292929" transform="translate(0,0)"/>
<path d="" fill="#323232" transform="translate(0,0)"/>
<path d="" fill="#323231" transform="translate(0,0)"/>
<path d="" fill="#333131" transform="translate(0,0)"/>
<path d="" fill="#292928" transform="translate(0,0)"/>
<path d="" fill="#272725" transform="translate(0,0)"/>
<path d="" fill="#2A292A" transform="translate(0,0)"/>
<path d="" fill="#333233" transform="translate(0,0)"/>
<path d="" fill="#343330" transform="translate(0,0)"/>
<path d="" fill="#312F2D" transform="translate(0,0)"/>
<path d="" fill="#242322" transform="translate(0,0)"/>
<path d="" fill="#252322" transform="translate(0,0)"/>
<path d="" fill="#23221E" transform="translate(0,0)"/>
<path d="" fill="#1D1B1C" transform="translate(0,0)"/>
<path d="" fill="#1E191C" transform="translate(0,0)"/>
<path d="" fill="#1E1E1E" transform="translate(0,0)"/>
<path d="" fill="#1F201D" transform="translate(0,0)"/>
<path d="" fill="#1D1F1D" transform="translate(0,0)"/>
<path d="" fill="#1E1E1E" transform="translate(0,0)"/>
<path d="" fill="#1D1D1E" transform="translate(0,0)"/>
<path d="" fill="#1E1E1E" transform="translate(0,0)"/>
<path d="" fill="#1E1C1C" transform="translate(0,0)"/>
<path d="" fill="#20211D" transform="translate(0,0)"/>
<path d="" fill="#201F1E" transform="translate(0,0)"/>
<path d="" fill="#1D1C1C" transform="translate(0,0)"/>
<path d="" fill="#31302F" transform="translate(0,0)"/>
<path d="" fill="#1A1C1B" transform="translate(0,0)"/>
<path d="" fill="#1C191A" transform="translate(0,0)"/>
<path d="" fill="#37373A" transform="translate(0,0)"/>
<path d="" fill="#1D1B1B" transform="translate(0,0)"/>
<path d="" fill="#2F302E" transform="translate(0,0)"/>
<path d="" fill="#1E1C1C" transform="translate(0,0)"/>
<path d="" fill="#2E302E" transform="translate(0,0)"/>
<path d="" fill="#353534" transform="translate(0,0)"/>
<path d="" fill="#323231" transform="translate(0,0)"/>
<path d="" fill="#343332" transform="translate(0,0)"/>
<path d="" fill="#313331" transform="translate(0,0)"/>
<path d="" fill="#313131" transform="translate(0,0)"/>
<path d="" fill="#302F30" transform="translate(0,0)"/>
<path d="" fill="#2E2F2F" transform="translate(0,0)"/>
<path d="" fill="#302F2D" transform="translate(0,0)"/>
<path d="" fill="#2F3030" transform="translate(0,0)"/>
<path d="" fill="#1D1D1D" transform="translate(0,0)"/>
<path d="" fill="#2E2F31" transform="translate(0,0)"/>
<path d="" fill="#313130" transform="translate(0,0)"/>
<path d="" fill="#2F2E2D" transform="translate(0,0)"/>
<path d="" fill="#2E2E2E" transform="translate(0,0)"/>
<path d="" fill="#312F2E" transform="translate(0,0)"/>
<path d="" fill="#30312F" transform="translate(0,0)"/>
<path d="" fill="#313432" transform="translate(0,0)"/>
<path d="" fill="#2F2E2F" transform="translate(0,0)"/>
<path d="" fill="#2E2D2F" transform="translate(0,0)"/>
<path d="" fill="#2D2D2D" transform="translate(0,0)"/>
<path d="" fill="#1A1D1C" transform="translate(0,0)"/>
<path d="" fill="#1D1C1D" transform="translate(0,0)"/>
<path d="" fill="#2F2D2E" transform="translate(0,0)"/>
<path d="" fill="#323034" transform="translate(0,0)"/>
<path d="" fill="#1C1E1E" transform="translate(0,0)"/>
<path d="" fill="#2D2A2B" transform="translate(0,0)"/>
<path d="" fill="#2C2B2D" transform="translate(0,0)"/>
<path d="" fill="#2C2928" transform="translate(0,0)"/>
<path d="" fill="#302F2D" transform="translate(0,0)"/>
<path d="" fill="#1F201F" transform="translate(0,0)"/>
<path d="" fill="#29292A" transform="translate(0,0)"/>
<path d="" fill="#2F2E2E" transform="translate(0,0)"/>
<path d="" fill="#2F2F2D" transform="translate(0,0)"/>
<path d="" fill="#2D2D2D" transform="translate(0,0)"/>
<path d="" fill="#201E1E" transform="translate(0,0)"/>
<path d="" fill="#1E1D1D" transform="translate(0,0)"/>
<path d="" fill="#2E2D2B" transform="translate(0,0)"/>
<path d="" fill="#1B1A1B" transform="translate(0,0)"/>
<path d="" fill="#2B2B2B" transform="translate(0,0)"/>
<path d="" fill="#2D2D2B" transform="translate(0,0)"/>
<path d="" fill="#312F2F" transform="translate(0,0)"/>
<path d="" fill="#2F3030" transform="translate(0,0)"/>
<path d="" fill="#323131" transform="translate(0,0)"/>
<path d="" fill="#2A2B2B" transform="translate(0,0)"/>
<path d="" fill="#343633" transform="translate(0,0)"/>
<path d="" fill="#2C2C2C" transform="translate(0,0)"/>
<path d="" fill="#2F302F" transform="translate(0,0)"/>
<path d="" fill="#272823" transform="translate(0,0)"/>
<path d="" fill="#2A2A28" transform="translate(0,0)"/>
<path d="" fill="#2E2F2D" transform="translate(0,0)"/>
<path d="" fill="#302F2E" transform="translate(0,0)"/>
<path d="" fill="#313032" transform="translate(0,0)"/>
<path d="" fill="#29292A" transform="translate(0,0)"/>
<path d="" fill="#262828" transform="translate(0,0)"/>
<path d="" fill="#2D2D2E" transform="translate(0,0)"/>
<path d="" fill="#2E2C2C" transform="translate(0,0)"/>
<path d="" fill="#31312F" transform="translate(0,0)"/>
<path d="" fill="#2B2A29" transform="translate(0,0)"/>
<path d="" fill="#292629" transform="translate(0,0)"/>
<path d="" fill="#1F1E1F" transform="translate(0,0)"/>
<path d="" fill="#1D201B" transform="translate(0,0)"/>
<path d="" fill="#1F1D1B" transform="translate(0,0)"/>
<path d="" fill="#191919" transform="translate(0,0)"/>
<path d="" fill="#2F2E2F" transform="translate(0,0)"/>
<path d="" fill="#201E1D" transform="translate(0,0)"/>
<path d="" fill="#2C2B2B" transform="translate(0,0)"/>
<path d="" fill="#2B2D2C" transform="translate(0,0)"/>
<path d="" fill="#2D2D2F" transform="translate(0,0)"/>
<path d="" fill="#2E2A2C" transform="translate(0,0)"/>
<path d="" fill="#1E1F1D" transform="translate(0,0)"/>
<path d="" fill="#212122" transform="translate(0,0)"/>
<path d="" fill="#22211F" transform="translate(0,0)"/>
<path d="" fill="#1E1D1E" transform="translate(0,0)"/>
<path d="" fill="#2C2B2A" transform="translate(0,0)"/>
<path d="" fill="#1C1D1C" transform="translate(0,0)"/>
<path d="" fill="#1E1D1D" transform="translate(0,0)"/>
<path d="" fill="#2C2A29" transform="translate(0,0)"/>
<path d="" fill="#272824" transform="translate(0,0)"/>
<path d="" fill="#2A2525" transform="translate(0,0)"/>
<path d="" fill="#2E2D2E" transform="translate(0,0)"/>
<path d="" fill="#2C2C2C" transform="translate(0,0)"/>
<path d="" fill="#262524" transform="translate(0,0)"/>
<path d="" fill="#252324" transform="translate(0,0)"/>
<path d="" fill="#322F30" transform="translate(0,0)"/>
<path d="" fill="#2F2C2C" transform="translate(0,0)"/>
<path d="" fill="#262825" transform="translate(0,0)"/>
<path d="" fill="#2F2F2E" transform="translate(0,0)"/>
<path d="" fill="#2B2A2A" transform="translate(0,0)"/>
<path d="" fill="#211E20" transform="translate(0,0)"/>
<path d="" fill="#232221" transform="translate(0,0)"/>
<path d="" fill="#202020" transform="translate(0,0)"/>
<path d="" fill="#272628" transform="translate(0,0)"/>
<path d="" fill="#201F21" transform="translate(0,0)"/>
<path d="" fill="#211E1E" transform="translate(0,0)"/>
<path d="" fill="#1C1B1C" transform="translate(0,0)"/>
<path d="" fill="#21221F" transform="translate(0,0)"/>
<path d="" fill="#2E2E2D" transform="translate(0,0)"/>
<path d="" fill="#312F2F" transform="translate(0,0)"/>
<path d="" fill="#2D2C2F" transform="translate(0,0)"/>
<path d="" fill="#2C2B2D" transform="translate(0,0)"/>
<path d="" fill="#302F2F" transform="translate(0,0)"/>
<path d="" fill="#312F31" transform="translate(0,0)"/>
<path d="" fill="#303030" transform="translate(0,0)"/>
<path d="" fill="#2F2F2E" transform="translate(0,0)"/>
<path d="" fill="#2E2F2D" transform="translate(0,0)"/>
<path d="" fill="#312F2E" transform="translate(0,0)"/>
<path d="" fill="#2C2B2B" transform="translate(0,0)"/>
<path d="" fill="#2C2C2C" transform="translate(0,0)"/>
<path d="" fill="#312E2F" transform="translate(0,0)"/>
<path d="" fill="#2C2D2A" transform="translate(0,0)"/>
<path d="" fill="#302F2F" transform="translate(0,0)"/>
<path d="" fill="#292826" transform="translate(0,0)"/>
<path d="" fill="#2B2B2D" transform="translate(0,0)"/>
<path d="" fill="#302E2E" transform="translate(0,0)"/>
<path d="" fill="#272625" transform="translate(0,0)"/>
<path d="" fill="#2C2D2D" transform="translate(0,0)"/>
<path d="" fill="#312F2F" transform="translate(0,0)"/>
<path d="" fill="#2F2E2F" transform="translate(0,0)"/>
<path d="" fill="#2E2E2D" transform="translate(0,0)"/>
<path d="" fill="#302C2C" transform="translate(0,0)"/>
<path d="" fill="#343232" transform="translate(0,0)"/>
<path d="" fill="#323232" transform="translate(0,0)"/>
<path d="" fill="#343332" transform="translate(0,0)"/>
<path d="" fill="#2C2B2A" transform="translate(0,0)"/>
<path d="" fill="#2F2A2E" transform="translate(0,0)"/>
<path d="" fill="#333432" transform="translate(0,0)"/>
<path d="" fill="#2F2D2C" transform="translate(0,0)"/>
<path d="" fill="#2D2F2D" transform="translate(0,0)"/>
<path d="" fill="#2B2B29" transform="translate(0,0)"/>
<path d="" fill="#2D2C2C" transform="translate(0,0)"/>
<path d="" fill="#302E2F" transform="translate(0,0)"/>
<path d="" fill="#343434" transform="translate(0,0)"/>
<path d="" fill="#303132" transform="translate(0,0)"/>
<path d="" fill="#2A292A" transform="translate(0,0)"/>
<path d="" fill="#353332" transform="translate(0,0)"/>
<path d="" fill="#2A2928" transform="translate(0,0)"/>
<path d="" fill="#363331" transform="translate(0,0)"/>
<path d="" fill="#323331" transform="translate(0,0)"/>
<path d="" fill="#333330" transform="translate(0,0)"/>
<path d="" fill="#333233" transform="translate(0,0)"/>
<path d="" fill="#363434" transform="translate(0,0)"/>
<path d="" fill="#353531" transform="translate(0,0)"/>
<path d="" fill="#2F2F2F" transform="translate(0,0)"/>
<path d="" fill="#363333" transform="translate(0,0)"/>
<path d="" fill="#272B2A" transform="translate(0,0)"/>
<path d="" fill="#322E30" transform="translate(0,0)"/>
<path d="" fill="#302F2F" transform="translate(0,0)"/>
<path d="" fill="#2E2F2D" transform="translate(0,0)"/>
<path d="" fill="#2E2E2D" transform="translate(0,0)"/>
<path d="" fill="#312E31" transform="translate(0,0)"/>
<path d="" fill="#31302D" transform="translate(0,0)"/>
<path d="" fill="#2C2D2C" transform="translate(0,0)"/>
<path d="" fill="#302F2D" transform="translate(0,0)"/>
<path d="" fill="#332F31" transform="translate(0,0)"/>
<path d="" fill="#2F3030" transform="translate(0,0)"/>
<path d="" fill="#2F2F2F" transform="translate(0,0)"/>
<path d="" fill="#2F2F2D" transform="translate(0,0)"/>
<path d="" fill="#2F2F2C" transform="translate(0,0)"/>
<path d="" fill="#2F2F31" transform="translate(0,0)"/>
<path d="" fill="#332F2F" transform="translate(0,0)"/>
<path d="" fill="#33302F" transform="translate(0,0)"/>
<path d="" fill="#302D31" transform="translate(0,0)"/>
<path d="" fill="#313231" transform="translate(0,0)"/>
<path d="" fill="#313132" transform="translate(0,0)"/>
<path d="" fill="#302F2F" transform="translate(0,0)"/>
<path d="" fill="#323231" transform="translate(0,0)"/>
<path d="" fill="#2D2C2D" transform="translate(0,0)"/>
<path d="" fill="#343132" transform="translate(0,0)"/>
<path d="" fill="#353431" transform="translate(0,0)"/>
<path d="" fill="#353433" transform="translate(0,0)"/>
<path d="" fill="#353432" transform="translate(0,0)"/>
<path d="" fill="#373835" transform="translate(0,0)"/>
<path d="" fill="#292426" transform="translate(0,0)"/>
</svg>
